# xmcd
#
# Track frame offsets: 
#        150
#        11978
#        25305
#        38093
#        55399
#        73399
#        85642
#        97096
#        113019
#        126030
#        138070
#        145337
#        149655
#        162682
#        180958
#        205816
#        217215
#
# Disc length: 3143 seconds
#
# Revision: 0
# Processed by: cddbd v1.5.1PL2 Copyright (c) Steve Scherf et al.
# Submitted via: ExactAudioCopy v0.95b4
#
DISCID=050c4511
DTITLE=Johnny Cash - 31 March 1986 Wembley
DYEAR=1986
DGENRE=country
TTITLE0=Intro
TTITLE1=Ring Of Fire
TTITLE2=Folsom Prison Blues
TTITLE3=Sunday Morning Coming Down
TTITLE4=Any Old Wind That Blows
TTITLE5=These Hands
TTITLE6=Here Comes That Rainbow Again
TTITLE7=Love Is The Way
TTITLE8=The Highwayman
TTITLE9=Big River
TTITLE10=I Guess Things Happen That Way
TTITLE11=Band Introductions
TTITLE12=Fairweather Friends
TTITLE13=Piano Solo By Earl 'pool' Ball
TTITLE14=One Piece At A Time
TTITLE15=Forty Shades Of Green
TTITLE16=Ghost Riders In The Sky
EXTD=
EXTT0=
EXTT1=
EXTT2=
EXTT3=
EXTT4=
EXTT5=
EXTT6=
EXTT7=
EXTT8=
EXTT9=
EXTT10=
EXTT11=
EXTT12=
EXTT13=
EXTT14=
EXTT15=
EXTT16=
PLAYORDER=
